<?xml version="1.0" encoding="utf-8"?>
<!-- Generator: Adobe Illustrator 27.6.1, SVG Export Plug-In . SVG Version: 6.00 Build 0)  -->
<svg version="1.1" id="レイヤー_1" xmlns="http://www.w3.org/2000/svg" xmlns:xlink="http://www.w3.org/1999/xlink" x="0px"
	 y="0px" viewBox="0 0 500 500" style="enable-background:new 0 0 500 500;" xml:space="preserve">
<style type="text/css">
	.st0{fill:none;stroke:#000000;stroke-miterlimit:10;}
	.st1{font-family:'Microsoft-Yi-Baiti';}
	.st2{font-size:239.1918px;}
</style>
<g>
	<text transform="matrix(1 0 0 1 15.1875 314.1729)" class="st0 st1 st2">tuning</text>
	<path class="st0" d="M11.29,273.02c14.27,1.18,26.21-14.13,40.41-12.35c11.41,1.43,18.55,13.14,28.97,18.01
		c22.05,10.3,46.79-12.98,70.85-9.33c8.92,1.35,16.95,6.36,25.85,7.91c14.41,2.51,28.74-4.34,41.12-12.14
		c8.9-5.61,18.73-12.12,29.06-10.09c3.98,0.78,7.58,2.79,11.12,4.77c9.12,5.12,18.24,10.23,27.36,15.35
		c10.15,5.69,21.36,11.58,32.81,9.55c14.3-2.53,24.42-16.71,38.73-19.17c6.09-1.05,12.32,0.17,18.38,1.37
		c12.57,2.51,25.13,5.01,37.7,7.52c6.37,1.27,13.01,2.54,19.3,0.89c9.57-2.5,17.7-11.52,27.46-9.92c8.02,1.32,15.37,9.72,22.77,6.36
		"/>
</g>
</svg>
